<svg xmlns="http://www.w3.org/2000/svg" xml:space="preserve" style="fill-rule:evenodd;clip-rule:evenodd;stroke-linejoin:round;stroke-miterlimit:2" viewBox="8 11.5 640 512"><path d="M373.3 504.8c-12 12-28.3 18.7-45.3 18.7-17 0-33.3-6.7-45.3-18.7S264 476.5 264 459.5h128c0 17-6.7 33.3-18.7 45.3ZM328 11.5c17.7 0 32 14.3 32 32v19.2c73 14.8 128 79.4 128 156.8v18.8c0 47.1 17.3 92.4 48.5 127.6l7.4 8.3c8.4 9.4 10.5 22.9 5.3 34.4a32.05 32.05 0 0 1-29.2 18.9H136c-12.6 0-24.1-7.4-29.2-18.9-5.1-11.5-3.1-25 5.3-34.4l7.4-8.3c31.2-35.2 48.5-80.6 48.5-127.6v-18.8c0-77.4 55-142 128-156.8V43.5c0-17.7 14.3-32 32-32ZM172.62 392.85h23.68v-19.68h-23.68v19.68Zm186.6 0h39.35v-13.9l-7-2.18v-35.76a12.75 12.75 0 0 1 4.42-3.5c1.67-.78 3.53-1.18 5.56-1.18 2.63 0 4.6.77 5.9 2.3 1.32 1.55 1.97 4.46 1.97 8.76v29.38l-6.1 2.17v13.91h35.89v-13.9l-6.1-2.18v-35.82a13.1 13.1 0 0 1 4.4-3.43c1.68-.8 3.56-1.19 5.64-1.19 2.53 0 4.46.77 5.8 2.3 1.33 1.55 2 4.46 2 8.76v29.38l-6.99 2.17v13.91h39.42v-13.9l-8.68-2.18V347.4c0-9.95-2.04-17.32-6.11-22.12-4.07-4.8-9.66-7.2-16.76-7.2-4.75 0-8.88 1.05-12.38 3.13a24.18 24.18 0 0 0-8.59 8.82c-1.67-4.02-4.15-7.02-7.43-8.99-3.28-1.97-7.2-2.95-11.77-2.95-4.52 0-8.5.97-11.94 2.92a26.07 26.07 0 0 0-8.75 8.2l-.75-9.76h-32.64v13.97l10.32 2.17v41.2l-8.69 2.16v13.91Zm-118.89 1.43c6.6 0 11.96-.96 16.05-2.89 4.1-1.92 7.3-4.81 9.6-8.68 2.31-3.87 4-8.72 5.1-14.56l-.28-.4h-19.95c-.86 2.76-2.07 4.85-3.63 6.27-1.56 1.43-3.76 2.14-6.61 2.14a9.67 9.67 0 0 1-5.43-1.76c-1.77-1.18-3.22-3.16-4.38-5.94-1.15-2.78-1.73-6.6-1.73-11.43v-1.56c0-4.66.43-8.49 1.29-11.47.86-2.99 2.28-5.21 4.27-6.69 2-1.46 4.69-2.2 8.08-2.2.86 0 1.93.25 3.22.75a8.76 8.76 0 0 1 3.09 1.9l2.85 13.3h17.7l.42-23.14c-2.9-2.31-6.85-4.53-11.84-6.65-5-2.13-11-3.2-18.02-3.2-6.97 0-13.06 1.6-18.28 4.76a32.7 32.7 0 0 0-12.22 13.16c-2.92 5.61-4.38 12.1-4.38 19.47v1.57c0 7.19 1.4 13.59 4.21 19.2a31.9 31.9 0 0 0 12.08 13.23c5.25 3.21 11.51 4.82 18.8 4.82ZM294.97 81.6c-36.58 9.4-76.66 36.45-99.54 87.26a3.5 3.5 0 0 0 6.39 2.88c21.82-48.49 59.99-74.39 94.9-83.36a3.5 3.5 0 0 0-1.75-6.78Zm21.98 312.68c7.46 0 13.85-1.59 19.17-4.75a31.44 31.44 0 0 0 12.21-13.2c2.83-5.63 4.24-12.13 4.24-19.5v-1.37c0-7.37-1.41-13.86-4.24-19.47a31.5 31.5 0 0 0-12.21-13.16c-5.32-3.17-11.75-4.75-19.3-4.75-7.51 0-13.94 1.6-19.28 4.78a31.65 31.65 0 0 0-12.24 13.2c-2.83 5.6-4.24 12.08-4.24 19.4v1.36c0 7.42 1.41 13.95 4.24 19.58a31.1 31.1 0 0 0 12.28 13.16c5.36 3.14 11.82 4.72 19.37 4.72Zm0-18.12c-2.99 0-5.36-.77-7.12-2.3-1.77-1.55-3.03-3.76-3.8-6.66a40.84 40.84 0 0 1-1.16-10.38v-1.36c0-3.84.39-7.2 1.16-10.07.77-2.87 2.03-5.11 3.8-6.72 1.76-1.6 4.09-2.4 6.98-2.4 2.94 0 5.3.8 7.06 2.4 1.76 1.6 3.04 3.85 3.83 6.72.8 2.87 1.2 6.23 1.2 10.07v1.36c0 3.98-.4 7.42-1.2 10.32-.79 2.9-2.05 5.12-3.8 6.68-1.74 1.56-4.06 2.34-6.95 2.34Z" style="fill:#f2c343"/><path d="M8 211.5c0 13.3 10.7 24 24 24h80c13.3 0 24-10.7 24-24s-10.7-24-24-24H32c-13.3 0-24 10.7-24 24Zm536-24c-13.3 0-24 10.7-24 24s10.7 24 24 24h80c13.3 0 24-10.7 24-24s-10.7-24-24-24h-80Zm61.5-154.7a23.87 23.87 0 0 0-32.2-10.7l-64 32a23.87 23.87 0 0 0-10.7 32.2A23.9 23.9 0 0 0 530.8 97l64-32a23.87 23.87 0 0 0 10.7-32.2ZM61.3 65l64 32c11.9 5.9 26.3 1.1 32.2-10.7 5.9-11.8 1.1-26.3-10.7-32.2l-64-32c-11.9-6-26.3-1.2-32.3 10.7-6 11.9-1.1 26.3 10.7 32.2h.1Z" style="fill:#898989;fill-opacity:.6;fill-rule:nonzero"/></svg>