<svg xmlns="http://www.w3.org/2000/svg" xml:space="preserve" style="fill-rule:evenodd;clip-rule:evenodd;stroke-linejoin:round;stroke-miterlimit:2" viewBox="0 0 656 535"><path d="M365.3 493.3c12-12 18.7-28.3 18.7-45.3H256c0 17 6.7 33.3 18.7 45.3S303 512 320 512c17 0 33.3-6.7 45.3-18.7Z" style="fill:#c2961e;fill-rule:nonzero" transform="translate(8 11.5)"/><g transform="translate(8 11.5)"><clipPath id="a"><path d="M365.3 482.745c12-12 18.7-28.3 18.7-45.3H256c0 17 6.7 33.3 18.7 45.3s28.3 18.7 45.3 18.7c17 0 33.3-6.7 45.3-18.7Z" clip-rule="nonzero"/></clipPath><g clip-path="url(#a)"><clipPath id="b"><path d="M365.3 470.876c12-12 18.7-28.3 18.7-45.3H256c0 17 6.7 33.3 18.7 45.3s28.3 18.7 45.3 18.7c17 0 33.3-6.7 45.3-18.7Z" clip-rule="nonzero"/></clipPath><g clip-path="url(#b)"><path d="M365.3 493.3c12-12 18.7-28.3 18.7-45.3H256c0 17 6.7 33.3 18.7 45.3S303 512 320 512c17 0 33.3-6.7 45.3-18.7Z" style="fill:#f2c343;fill-rule:nonzero"/></g></g></g><path d="M365.3 493.3c12-12 18.7-28.3 18.7-45.3H256c0 17 6.7 33.3 18.7 45.3S303 512 320 512c17 0 33.3-6.7 45.3-18.7Z" style="fill:none;fill-rule:nonzero;stroke:#000;stroke-width:23px" transform="translate(8 11.5)"/><path d="M320 0c-17.7 0-32 14.3-32 32v19.2C215 66 160 130.6 160 208v18.8c0 47-17.3 92.4-48.5 127.6l-7.4 8.3c-8.4 9.4-10.4 22.9-5.3 34.4 5.1 11.5 16.6 18.9 29.2 18.9h384c12.6 0 24-7.4 29.2-18.9 5.2-11.5 3.1-25-5.3-34.4l-7.4-8.3c-31.2-35.2-48.5-80.5-48.5-127.6V208c0-77.4-55-142-128-156.8V32c0-17.7-14.3-32-32-32Z" style="fill:#c2961e;fill-rule:nonzero" transform="translate(8 11.5)"/><g transform="translate(8 11.5)"><clipPath id="c"><path d="M320.002 8.014c-16.251 0-29.381 13.13-29.381 29.381v17.629c-67.025 13.588-117.523 72.901-117.523 143.966v17.261c0 43.153-15.884 84.837-44.53 117.156l-6.795 7.62c-7.712 8.631-9.549 21.026-4.866 31.585 4.683 10.559 15.241 17.353 26.81 17.353h352.57c11.568 0 22.035-6.794 26.81-17.353 4.774-10.559 2.846-22.954-4.867-31.585l-6.794-7.62c-28.646-32.319-44.53-73.911-44.53-117.156V198.99c0-71.065-50.498-130.378-117.523-143.966V37.395c0-16.251-13.13-29.381-29.381-29.381Z" clip-rule="nonzero"/></clipPath><g clip-path="url(#c)"><path d="M320 0c-17.7 0-32 14.3-32 32v19.2C215 66 160 130.6 160 208v18.8c0 47-17.3 92.4-48.5 127.6l-7.4 8.3c-8.4 9.4-10.4 22.9-5.3 34.4 5.1 11.5 16.6 18.9 29.2 18.9h384c12.6 0 24-7.4 29.2-18.9 5.2-11.5 3.1-25-5.3-34.4l-7.4-8.3c-31.2-35.2-48.5-80.5-48.5-127.6V208c0-77.4-55-142-128-156.8V32c0-17.7-14.3-32-32-32Z" style="fill:#f2c343;fill-rule:nonzero"/></g></g><path d="M320 0c-17.7 0-32 14.3-32 32v19.2C215 66 160 130.6 160 208v18.8c0 47-17.3 92.4-48.5 127.6l-7.4 8.3c-8.4 9.4-10.4 22.9-5.3 34.4 5.1 11.5 16.6 18.9 29.2 18.9h384c12.6 0 24-7.4 29.2-18.9 5.2-11.5 3.1-25-5.3-34.4l-7.4-8.3c-31.2-35.2-48.5-80.5-48.5-127.6V208c0-77.4-55-142-128-156.8V32c0-17.7-14.3-32-32-32Z" style="fill:none;fill-rule:nonzero;stroke:#000;stroke-width:23px" transform="translate(8 11.5)"/><path d="M288.294 93.215c-35.744 9.188-74.867 35.66-97.216 85.309" style="fill:none;stroke:#fff;stroke-width:7px;stroke-linecap:round;stroke-miterlimit:1.5" transform="translate(7.536 -8.224)"/><path d="M0 200c0 13.3 10.7 24 24 24h80c13.3 0 24-10.7 24-24s-10.7-24-24-24H24c-13.3 0-24 10.7-24 24Zm536-24c-13.3 0-24 10.7-24 24s10.7 24 24 24h80c13.3 0 24-10.7 24-24s-10.7-24-24-24h-80Zm61.5-154.7c-5.9-11.9-20.3-16.7-32.2-10.7l-64 32c-11.9 5.9-16.7 20.3-10.7 32.2 6 11.9 20.3 16.7 32.2 10.7l64-32c11.9-5.9 16.7-20.3 10.7-32.2ZM53.3 53.5l64 32c11.9 5.9 26.3 1.1 32.2-10.7 5.9-11.8 1.1-26.3-10.7-32.2l-64-32c-11.9-6-26.3-1.2-32.3 10.7-6 11.9-1.1 26.3 10.7 32.2h.1Z" style="fill-rule:nonzero;stroke:#fff;stroke-width:16px" transform="translate(8 11.5)"/><path d="M.024-.046c0-.007.001-.014.004-.02a.039.039 0 0 1 .011-.017c.004-.005.01-.008.016-.011a.045.045 0 0 1 .02-.004c.007 0 .014.001.02.004a.05.05 0 0 1 .017.011c.004.005.008.01.011.017a.045.045 0 0 1 .004.02.046.046 0 0 1-.015.036.05.05 0 0 1-.037.015.045.045 0 0 1-.02-.004C.049-.002.043-.005.039-.01a.036.036 0 0 1-.011-.016.045.045 0 0 1-.004-.02Z" style="fill-rule:nonzero" transform="matrix(265 0 0 265 173.921 388.63)"/><path d="M.189-.295V-.33a.217.217 0 0 0-.005-.049.118.118 0 0 0-.011-.029.039.039 0 0 0-.015-.014.028.028 0 0 0-.015-.004.033.033 0 0 0-.026.014.112.112 0 0 0-.018.038.397.397 0 0 0-.011.061.958.958 0 0 0 .01.221c.005.017.011.03.018.039a.035.035 0 0 0 .051.004A.116.116 0 0 0 .193-.1.588.588 0 0 0 .2-.129h.048a.423.423 0 0 1-.012.056.179.179 0 0 1-.022.046.106.106 0 0 1-.031.029.072.072 0 0 1-.041.011C.104.013.075-.008.053-.049a.42.42 0 0 1-.032-.183.54.54 0 0 1 .009-.105.303.303 0 0 1 .025-.077.131.131 0 0 1 .037-.047.07.07 0 0 1 .044-.016c.007 0 .013.001.019.003l.015.009.011.012.008.014v-.026H.24v.17H.189Z" style="fill-rule:nonzero" transform="matrix(265 0 0 265 213.839 388.63)"/><path d="M.26-.232a.581.581 0 0 1-.009.11.294.294 0 0 1-.025.076.133.133 0 0 1-.038.045.086.086 0 0 1-.094 0 .114.114 0 0 1-.038-.045.26.26 0 0 1-.026-.076.581.581 0 0 1-.009-.11c0-.042.003-.079.009-.11a.266.266 0 0 1 .026-.077.12.12 0 0 1 .038-.044.084.084 0 0 1 .047-.015c.017 0 .032.005.047.014.014.01.027.025.038.045.01.02.019.045.025.076a.6.6 0 0 1 .009.111Zm-.06 0a.52.52 0 0 0-.015-.144c-.01-.033-.024-.05-.044-.05-.02 0-.035.017-.045.05a.526.526 0 0 0-.015.144c0 .063.005.111.015.144.01.032.025.049.045.049.02 0 .034-.017.044-.049A.526.526 0 0 0 .2-.232Z" style="fill-rule:nonzero" transform="matrix(265 0 0 265 284.013 388.63)"/><path d="M.313-.055h.03v-.281L.342-.365a.12.12 0 0 0-.003-.028.063.063 0 0 0-.007-.022C.329-.42.325-.423.319-.423c-.005 0-.009.002-.014.006l-.014.015a.196.196 0 0 0-.022.044l-.007.022-.002.018v.263h.03V0H.169v-.055h.03v-.281a.358.358 0 0 0-.004-.065C.191-.416.185-.423.176-.423c-.006 0-.012.003-.018.009a.124.124 0 0 0-.017.024.236.236 0 0 0-.025.072v.263h.03V0H.015v-.055h.04V-.41h-.04v-.055h.101v.052a.107.107 0 0 1 .016-.025.102.102 0 0 1 .041-.035.06.06 0 0 1 .023-.005c.017 0 .03.007.038.02a.18.18 0 0 1 .015.056.19.19 0 0 1 .043-.058.075.075 0 0 1 .047-.018c.012 0 .022.003.03.009a.068.068 0 0 1 .02.027.245.245 0 0 1 .015.087v.3h.04V0H.313v-.055Z" style="fill-rule:nonzero" transform="matrix(265 0 0 265 358.312 388.63)"/></svg>