<svg xmlns="http://www.w3.org/2000/svg" xml:space="preserve" style="fill-rule:evenodd;clip-rule:evenodd;stroke-linejoin:round;stroke-miterlimit:2" viewBox="8 11.5 640 512"><path d="M373 505a64 64 0 0 1-109-45h128c0 17-7 33-19 45ZM328 12c18 0 32 14 32 32v19c73 15 128 79 128 157v18c0 47 17 93 49 128l7 8a32 32 0 0 1-24 54H136a32 32 0 0 1-24-54l8-8c31-35 48-81 48-128v-18c0-78 55-142 128-157V44c0-18 14-32 32-32Zm29 381h40v-14l-7-2v-36c1-2 2-3 4-3l5-2c3 0 5 1 6 3 2 1 2 4 2 8v30l-6 2v14h36v-14l-6-2v-36l4-3 6-2c3 0 5 1 6 3l2 8v30l-7 2v14h39v-14l-8-2v-30c0-10-2-17-6-22-5-5-10-7-17-7-5 0-9 1-13 3-3 2-6 5-8 9-2-4-4-7-8-9a24 24 0 0 0-32 8l-1-10h-32v14l10 3v41l-9 2v14Zm-178 0h24v-20h-24v20Zm64 1c7 0 12-1 16-3 5-2 8-4 10-8l5-15h-20c-1 3-2 5-4 6l-6 2c-2 0-4 0-6-2-2-1-3-3-4-6l-2-11v-2l1-11 5-7 8-2 3 1 3 2 3 13h18v-23l-12-7c-5-2-11-3-18-3s-13 2-18 5-9 7-12 13-5 12-5 19v2c0 7 2 14 4 19 3 6 7 10 13 13 5 4 11 5 18 5Zm75 0c8 0 14-1 19-4 6-4 10-8 13-14 2-5 4-12 4-19v-2c0-7-2-13-4-19-3-6-7-10-13-13-5-3-11-5-19-5-7 0-14 2-19 5s-10 7-12 13c-3 6-5 12-5 19v2c0 7 2 14 5 19 2 6 7 10 12 14 5 3 12 4 19 4Zm0-18-7-2-4-7-1-10v-2l1-10c1-2 2-5 4-6 2-2 4-3 7-3s5 1 7 3c2 1 3 4 4 6l1 10v2l-1 10-4 7-7 2Z" style="fill:#f2c343"/><path d="M8 212c0 13 11 24 24 24h80a24 24 0 1 0 0-48H32c-13 0-24 10-24 24Zm536-24a24 24 0 1 0 0 48h80a24 24 0 1 0 0-48h-80Zm62-155c-6-12-21-17-33-11l-64 32c-12 6-16 20-10 32s20 17 32 11l64-32c12-6 17-20 11-32ZM61 65l64 32a24 24 0 0 0 22-43L83 22a24 24 0 1 0-22 43Z" style="fill:#898989;fill-opacity:.6;fill-rule:nonzero"/></svg>